<svg xmlns="http://www.w3.org/2000/svg" width="1.625em" height="1.625em" style="transform: rotate(360deg);" preserveAspectRatio="xMidYMid meet" viewBox="0 0 32 32"><path class="fill-teal" style="fill: #39CCCC;" d="M28 4H10a2.006 2.006 0 0 0-2 2v14a2.006 2.006 0 0 0 2 2h18a2.006 2.006 0 0 0 2-2V6a2.006 2.006 0 0 0-2-2zm0 16H10V6h18z" fill="#626262"></path><path class="fill-olive" style="fill: #2ECC40;" d="M18 26H4V16h2v-2H4a2.006 2.006 0 0 0-2 2v10a2.006 2.006 0 0 0 2 2h14a2.006 2.006 0 0 0 2-2v-2h-2z" fill="#626262"></path><rect x="0" y="0" width="32" height="32" fill="rgba(0, 0, 0, 0)"></rect></svg>
