<svg xmlns="http://www.w3.org/2000/svg" width="1.625em" height="1.625em" style=" transform: rotate(360deg);" preserveAspectRatio="xMidYMid meet" viewBox="0 0 16 16"><g fill="#626262"><path fill-rule="evenodd" d="M0 1l1-1l3.081 2.2a1 1 0 0 1 .419.815v.07a1 1 0 0 0 .293.708L10.5 9.5l.914-.305a1 1 0 0 1 1.023.242l3.356 3.356a1 1 0 0 1 0 1.414l-1.586 1.586a1 1 0 0 1-1.414 0l-3.356-3.356a1 1 0 0 1-.242-1.023L9.5 10.5L3.793 4.793a1 1 0 0 0-.707-.293h-.071a1 1 0 0 1-.814-.419L0 1zm11.354 9.646a.5.5 0 0 0-.708.708l3 3a.5.5 0 0 0 .708-.708l-3-3z"></path><path fill-rule="evenodd" class="fill-blue" style="fill: #0074D9" d="M15.898 2.223a3.003 3.003 0 0 1-3.679 3.674L5.878 12.15a3 3 0 1 1-2.027-2.027l6.252-6.341A3 3 0 0 1 13.778.1l-2.142 2.142L12 4l1.757.364l2.141-2.141zm-13.37 9.019L3.001 11l.471.242l.529.026l.287.445l.445.287l.026.529L5 13l-.242.471l-.026.529l-.445.287l-.287.445l-.529.026L3 15l-.471-.242L2 14.732l-.287-.445L1.268 14l-.026-.529L1 13l.242-.471l.026-.529l.445-.287l.287-.445l.529-.026z"></path></g><rect x="0" y="0" width="16" height="16" fill="rgba(0, 0, 0, 0)"></rect></svg>
